<?xml version="1.0" encoding="UTF-8" standalone="no"?>
<!DOCTYPE svg PUBLIC "-//W3C//DTD SVG 1.1//EN" "http://www.w3.org/Graphics/SVG/1.1/DTD/svg11.dtd">
<svg width="100%" height="100%" viewBox="0 0 652 652" version="1.1" xmlns="http://www.w3.org/2000/svg" xmlns:xlink="http://www.w3.org/1999/xlink" xml:space="preserve" xmlns:serif="http://www.serif.com/" style="fill-rule:evenodd;clip-rule:evenodd;stroke-linejoin:round;stroke-miterlimit:2;">
    <g transform="matrix(5.85337,0,0,5.85337,871.534,-1405.13)">
        <path d="M-76.4,317.9C-72.5,315.8 -69.3,312.5 -67.3,308.5L-54.3,318.9C-57.7,324.4 -62.5,328.9 -68.1,332.1C-74.3,335.6 -81.6,337.5 -89.7,337.5L-90.2,337.5C-98.3,337.5 -105.6,335.5 -111.8,332.1C-118,328.6 -123.1,323.5 -126.6,317.4C-130.1,311.2 -132.1,303.9 -132.1,295.8C-132.1,287.7 -130.1,280.4 -126.6,274.2C-123.1,268 -118,263 -111.8,259.5C-105.6,256 -98.3,254 -90.2,254L-89.7,254C-81.6,254 -74.3,256 -68.1,259.4C-63.2,262.2 -59,265.9 -55.7,270.5L-68.6,280.8C-70.6,277.8 -73.3,275.4 -76.4,273.7C-80.2,271.6 -84.7,270.5 -89.7,270.5L-90,270.5C-95,270.5 -99.5,271.6 -103.3,273.7C-107,275.7 -110.1,278.8 -112.1,282.5C-114.2,286.3 -115.3,290.8 -115.3,295.8C-115.3,299 -114.9,302 -114,304.7C-112.5,312.2 -115.6,321.1 -116.9,321.1L-87,321.1C-83.1,320.6 -79.5,319.6 -76.4,317.9Z" style="fill:rgb(16,140,243);"/>
    </g>
</svg>
