<?xml version="1.0" encoding="UTF-8" standalone="no"?>
<!DOCTYPE svg PUBLIC "-//W3C//DTD SVG 1.1//EN" "http://www.w3.org/Graphics/SVG/1.1/DTD/svg11.dtd">
<svg width="100%" height="100%" viewBox="0 0 1920 1920" version="1.1" xmlns="http://www.w3.org/2000/svg" xmlns:xlink="http://www.w3.org/1999/xlink" xml:space="preserve" xmlns:serif="http://www.serif.com/" style="fill-rule:evenodd;clip-rule:evenodd;stroke-linejoin:round;stroke-miterlimit:2;">
    <g>
        <g transform="matrix(1.13889,0,0,1.13889,95.995,-190.023)">
            <circle cx="87.156" cy="1195.73" r="48.593" style="fill:rgb(235,0,139);"/>
        </g>
        <g transform="matrix(1.13889,0,0,1.13889,208.53,-77.951)">
            <circle cx="87.156" cy="1195.73" r="48.593" style="fill:rgb(235,0,139);"/>
        </g>
    </g>
    <g>
        <path d="M746.585,767.375L836.184,677.776C837.828,682.92 838.715,688.401 838.715,694.088L838.715,1041.73L916.949,1041.73C946.754,1041.73 970.951,1065.93 970.951,1095.73C970.951,1125.54 946.754,1149.74 916.949,1149.74L786.677,1149.74C785.91,1149.74 785.147,1149.72 784.388,1149.69C755.115,1149.31 731.464,1125.43 731.464,1096.07L731.464,936.172L445.426,1222.21C424.182,1243.45 389.687,1243.45 368.443,1222.21C347.199,1200.97 347.199,1166.47 368.443,1145.23L743.088,770.583C744.217,769.454 745.384,768.384 746.585,767.375ZM1123.43,856.204C1204.69,856.204 1270.67,922.179 1270.67,1003.44C1270.67,1084.71 1204.69,1150.68 1123.43,1150.68C1042.17,1150.68 976.191,1084.71 976.191,1003.44C976.191,922.179 1042.17,856.204 1123.43,856.204ZM1368.91,712.071C1377.78,712.071 1385.95,715.027 1392.51,720.006C1403.22,727.697 1410.2,740.256 1410.2,754.431L1410.2,1106.19C1410.2,1129.57 1391.22,1148.55 1367.84,1148.55C1344.46,1148.55 1325.48,1129.57 1325.48,1106.19L1325.48,790.251L1260.36,790.251C1238.78,790.251 1221.27,772.735 1221.27,751.161C1221.27,729.587 1238.78,712.072 1260.36,712.071L1368.91,712.071ZM738.262,638.595L804.225,638.595C803.09,640.022 801.874,641.405 800.576,642.737L800.583,642.739L695.859,747.464L695.856,747.464L333.686,1109.63C312.442,1130.88 277.947,1130.88 256.703,1109.63C235.459,1088.39 235.459,1053.89 256.703,1032.65L541.891,747.464L383.345,747.464C353.302,747.464 328.91,723.072 328.91,693.029C328.91,662.986 353.301,638.594 383.345,638.594L737.897,638.594L738.262,638.595ZM1123.43,951.063C1152.34,951.063 1175.81,974.534 1175.81,1003.44C1175.81,1032.35 1152.34,1055.82 1123.43,1055.82C1094.52,1055.82 1071.05,1032.35 1071.05,1003.44C1071.05,974.534 1094.52,951.063 1123.43,951.063Z" style="fill:url(#_Linear1);"/>
    </g>
    <g>
        <g transform="matrix(0.97572,0,0,1.11135,38.0419,-120.655)">
            <path d="M1666.72,844.624C1666.72,827.109 1650.53,812.89 1630.58,812.89C1610.63,812.89 1594.43,827.109 1594.43,844.624L1594.43,1110.02C1594.43,1127.54 1610.63,1141.75 1630.58,1141.75C1650.53,1141.75 1666.72,1127.54 1666.72,1110.02L1666.72,844.624Z" style="fill:rgb(235,0,139);"/>
        </g>
        <g transform="matrix(5.97456e-17,-0.97572,1.11135,6.80506e-17,542.881,2556.48)">
            <path d="M1666.72,844.624C1666.72,827.109 1650.53,812.89 1630.58,812.89C1610.63,812.89 1594.43,827.109 1594.43,844.624L1594.43,1110.02C1594.43,1127.54 1610.63,1141.75 1630.58,1141.75C1650.53,1141.75 1666.72,1127.54 1666.72,1110.02L1666.72,844.624Z" style="fill:rgb(235,0,139);"/>
        </g>
    </g>
    <defs>
        <linearGradient id="_Linear1" x1="0" y1="0" x2="1" y2="0" gradientUnits="userSpaceOnUse" gradientTransform="matrix(1169.43,0,0,622.108,240.77,949.648)"><stop offset="0" style="stop-color:rgb(12,32,152);stop-opacity:1"/><stop offset="1" style="stop-color:rgb(113,166,218);stop-opacity:1"/></linearGradient>
    </defs>
</svg>
